# AST/ASF file generated using VICON BodyLanguage
# -----------------------------------------------
:version 1.10
:name VICON
:units
  mass 1.0
  length 0.45
  angle deg
:documentation
   .ast/.asf automatically generated from VICON data using
   VICON BodyBuilder and BodyLanguage model FoxedUp or BRILLIANT.MOD
:root
   order TX TY TZ RX RY RZ
   axis XYZ
   position 0 0 0  
   orientation 0 0 0 
:bonedata
  begin
     id 1 
     name lhipjoint
     direction 0.653368 -0.678499 0.335782 
     length 2.51848 
     axis 0 0 0  XYZ
  end
  begin
     id 2 
     name lfemur
     direction 0.34202 -0.939693 0  
     length 6.57749  
     axis 0 0 20  XYZ
    dof rx ry rz
    limits (-160.0 20.0)
           (-70.0 70.0)
           (-60.0 70.0)
  end
  begin
     id 3 
     name ltibia
     direction 0.34202 -0.939693 0   
     length 7.94618   
     axis 0 0 20   XYZ
    dof rx
    limits (-10.0 170.0)
  end
  begin
     id 4 
     name lfoot
     direction 0.0811271 -0.222895 0.971461   
     length 2.31339   
     axis -90 7.62852e-016 20   XYZ
    dof rx rz
    limits (-45.0 90.0)
           (-70.0 20.0)
  end
  begin
     id 5 
     name ltoes
     direction 1.53568e-011 -4.21885e-011 1   
     length 1.15935   
     axis -90 7.62852e-016 20   XYZ
    dof rx
    limits (-90.0 20.0)
  end
  begin
     id 6 
     name rhipjoint
     direction -0.640058 -0.688614 0.340788   
     length 2.48149  
     axis 0 0 0  XYZ 
  end
  begin
     id 7 
     name rfemur
     direction -0.34202 -0.939693 0   
     length 6.57875   
     axis 0 0 -20   XYZ
    dof rx ry rz
    limits (-160.0 20.0)
           (-70.0 70.0)
           (-70.0 60.0)
  end
  begin
     id 8 
     name rtibia
     direction -0.34202 -0.939693 0   
     length 7.977   
     axis 0 0 -20   XYZ
    dof rx
    limits (-10.0 170.0)
 end
 begin
     id 9 
     name rfoot
     direction -0.0979793 -0.269196 0.958089   
     length 2.19857  
     axis -90 -7.62852e-016 -20   XYZ
    dof rx rz
    limits (-45.0 90.0)
           (-20.0 70.0)
  end
  begin
     id 10 
     name rtoes
     direction -1.53556e-011 -4.21868e-011 1   
     length 1.09838   
     axis -90 -7.62852e-016 -20   XYZ
    dof rx
    limits (-90.0 20.0)
  end
  begin
     id 11 
     name lowerback
     direction 0.0149039 0.998517 -0.0523597   
     length 2.10809   
     axis 0 0 0   XYZ
    dof rx ry rz
    limits (-20.0 45.0)
           (-30.0 30.0)
           (-30.0 30.0)
  end
  begin
     id 12 
     name upperback
     direction -0.00882659 0.999418 -0.0329624   
     length 2.1102   
     axis 0 0 0   XYZ
    dof rx ry rz
    limits (-20.0 45.0)
           (-30.0 30.0)
           (-30.0 30.0)
  end
  begin
     id 13 
     name thorax
     direction -0.0165585 0.999826 -0.0085833   
     length 2.11039   
     axis 0 0 0   XYZ
    dof rx ry rz
    limits (-20.0 45.0)
           (-30.0 30.0)
           (-30.0 30.0)
  end
  begin
     id 14 
     name lowerneck
     direction -0.0130877 0.999911 0.00260353   
     length 1.73253   
     axis 0 0 0   XYZ
    dof rx ry rz
    limits (-20.0 45.0)
           (-30.0 30.0)
           (-30.0 30.0)
  end
  begin
     id 15 
     name upperneck
     direction -0.0348454 0.928205 -0.370435   
     length 1.66692   
     axis 0 0 0   XYZ
    dof rx ry rz
    limits (-20.0 45.0)
           (-30.0 30.0)
           (-30.0 30.0)
  end
  begin
     id 16
     name head
     direction -0.00807754 0.992494 -0.122026  
     length 1.72765  
     axis 0 0 0   XYZ
    dof rx ry rz
    limits (-20.0 45.0)
           (-30.0 30.0)
           (-30.0 30.0)
  end
  begin
     id 17 
     name lclavicle
     direction 0.987582 0.144023 0.0627671  
     length 3.49235  
     axis 0 0 0   XYZ
    dof ry rz
    limits (-20.0 10.0)
           (0.0 20.0)
  end
  begin
     id 18 
     name lhumerus
     direction 1 -4.48958e-011 -1.45183e-018   
     length 5.41917   
     axis 180 -30 -90   XYZ
    dof rx ry rz
    limits (-60.0 90.0)
           (-90.0 90.0)
           (-90.0 90.0)
  end
  begin
     id 19
     name lradius
     direction 1 -4.48999e-011 5.75106e-027   
     length 2.44373   
     axis 180 -30 -90   XYZ
    dof rx
    limits (-10.0 170.0)
  end
  begin
     id 20
     name lwrist
     direction 1 -4.48987e-011 1.53461e-026   
     length 1.22186   
     axis -1.09697e-014 90 90   XYZ
    dof ry
    limits (-180.0 0.0)
 end
  begin
     id 21 
     name lhand
     direction 1 -4.48881e-011 3.06923e-026   
     length 0.727502   
     axis -1.95843e-014 90 90   XYZ
    dof rx rz
    limits (-90.0 90.0)
           (-45.0 45.0)
  end
  begin
     id 22 
     name lfingers
     direction 1 -4.48907e-011 6.13845e-026   
     length 0.586531   
     axis -3.91686e-014 90 90   XYZ
    dof rx
    limits (0.0 90.0)
  end
  begin
     id 23
     name lthumb
     direction 0.707107 -6.3487e-011 0.707107   
     length 0.842145   
     axis -90 45 2.85299e-015   XYZ
    dof rx rz
    limits (-45.0 45.0)
           (-45.0 45.0)
  end
  begin
     id 24 
     name rclavicle
     direction -0.980998 0.169556 0.0943023   
     length 3.29272  
     axis 0 0 0   XYZ 
    dof ry rz
    limits (-10.0 20.0)
           (-20.0 0.0)
  end
  begin
     id 25 
     name rhumerus
     direction -1 -1.83355e-005 2.45537e-005  
     length 5.58976   
     axis 180 30 90   XYZ
    dof rx ry rz
    limits (-90.0 60.0)
           (-90.0 90.0)
           (-90.0 90.0)
  end
  begin
     id 26 
     name rradius
     direction -1 -4.48967e-011 5.97228e-027   
     length 2.4806   
     axis 180 30 90   XYZ
    dof rx
    limits (-10.0 170.0)
  end
  begin
     id 27 
     name rwrist
     direction -1 -4.48963e-011 1.53461e-026   
     length 1.2403   
     axis -1.09697e-014 -90 -90   XYZ
    dof ry
    limits (-180.0 0.0)
  end
  begin
     id 28
     name rhand
     direction -1 -4.48881e-011 3.06923e-026   
     length 0.816009   
     axis -1.95843e-014 -90 -90   XYZ
    dof rx rz
    limits (-90.0 90.0)
           (-45.0 45.0)
  end
  begin
     id 29
     name rfingers
     direction -1 -4.49018e-011 6.13845e-026   
     length 0.657887   
     axis -3.91686e-014 -90 -90   XYZ
    dof rx
    limits (0.0 90.0)
  end
  begin
     id 30
     name rthumb
     direction -0.707107 -6.34872e-011 0.707107   
     length 0.944599   
     axis -90 -45 -2.85299e-015   XYZ
    dof rx rz
    limits (-45.0 45.0)
           (-45.0 45.0)
  end
:hierarchy
  begin
    root lhipjoint rhipjoint lowerback
    lhipjoint lfemur
    lfemur ltibia
    ltibia lfoot
    lfoot ltoes
    rhipjoint rfemur
    rfemur rtibia
    rtibia rfoot
    rfoot rtoes
    lowerback upperback
    upperback thorax
    thorax lowerneck lclavicle rclavicle
    lowerneck upperneck
    upperneck head
    lclavicle lhumerus
    lhumerus lradius
    lradius lwrist
    lwrist lhand lthumb
    lhand lfingers
    rclavicle rhumerus
    rhumerus rradius
    rradius rwrist
    rwrist rhand rthumb
    rhand rfingers
  end

#!OML:ASF F:\VICON\USERDATA\INSTALL\rory3\rory3.ASF
:FULLY-SPECIFIED
:DEGREES
1
root -0.44592 16.5664 -0.621031 -162.774 -6.5957 176.959
lowerback -4.28854 -2.0956 -4.02039
upperback -0.710335 -2.6433 0.0703373
thorax 1.85607 -1.35964 2.16645
lowerneck -14.0904 2.43363 -0.653263
upperneck 40.4448 -2.16997 1.56678
head 17.1622 -2.38195 -0.0646895
rclavicle -2.08693e-014 -1.39149e-014
rhumerus -42.8 4.81639 -88.9311
rradius 16.9745
rwrist -5.54739
rhand -8.75279 16.787
rfingers 7.12502
rthumb 17.1844 -12.4732
lclavicle -2.08693e-014 -1.39149e-014
lhumerus -42.96 8.65501 77.5715
lradius 20.2641
lwrist -3.25876
lhand -18.0282 21.7398
lfingers 7.12502
lthumb 8.24311 51.559
rfemur -60.777 2.46199 21.5966
rtibia 43.6815
rfoot -33.7449 -33.545
rtoes 55.7363
lfemur -22.9365 -4.21245 -31.7961
ltibia 31.7306
lfoot -34.1933 21.8731
ltoes -12.1451
2
root -0.44375 16.5561 -0.670491 -162.69 -6.92458 176.769
lowerback -4.33803 -2.2116 -4.01649
upperback -0.816842 -2.80192 0.00489084
thorax 1.78124 -1.4378 2.08722
lowerneck -13.923 2.46394 -0.524741
upperneck 40.465 -2.14706 1.44426
head 17.1274 -2.38155 -0.140402
rclavicle 1.56232e-014 -1.83876e-015
rhumerus -43.0583 5.57004 -89.5686
rradius 17.4245
rwrist -6.63294
rhand -8.18364 16.3521
rfingers 7.12502
rthumb 17.7321 -12.8594
lclavicle 1.56232e-014 -1.83876e-015
lhumerus -42.8301 7.1487 78.5259
lradius 19.6147
lwrist -3.59679
lhand -17.2491 21.6866
lfingers 7.12502
lthumb 8.99495 51.4748
rfemur -60.5117 2.30111 21.6825
rtibia 43.7829
rfoot -35.1817 -32.6886
rtoes 56.7441
lfemur -22.7765 -4.28071 -31.9173
ltibia 31.6974
lfoot -34.0608 21.9124
ltoes -13.037
3
root -0.438183 16.5414 -0.726327 -162.492 -7.21309 176.749
lowerback -4.6368 -2.28641 -3.93577
upperback -0.895505 -2.89768 -0.00651607
thorax 1.86898 -1.48739 2.01373
lowerneck -13.8748 2.46026 -0.418903
upperneck 40.5156 -2.19686 1.39797
head 17.1436 -2.3993 -0.191703
rclavicle 3.40854e-014 -7.47927e-015
rhumerus -43.2013 6.21285 -90.1343
rradius 17.7007
rwrist -7.42263
rhand -7.72696 16.013
rfingers 7.12502
rthumb 18.1715 -13.1582
lclavicle 3.40854e-014 -7.47927e-015
lhumerus -42.7922 5.46664 79.562
lradius 19.2499
lwrist -3.98795
lhand -16.1531 21.8334
lfingers 7.12502
lthumb 10.0525 51.5733
rfemur -60.308 2.53641 21.6744
rtibia 43.7747
rfoot -36.2524 -32.2254
rtoes 56.0332
lfemur -22.8157 -4.33358 -31.8422
ltibia 31.7498
lfoot -33.9113 22.0093
ltoes -13.9011
4
root -0.436958 16.5267 -0.793815 -162.387 -7.04269 176.715
lowerback -4.99205 -2.23469 -3.91342
upperback -0.961549 -2.81989 -0.0648932
thorax 1.99021 -1.45189 1.93383
lowerneck -13.7143 2.45792 -0.424448
upperneck 40.4948 -2.22719 1.41825
head 17.0916 -2.41882 -0.186868
rclavicle -1.01753e-014 -6.53505e-015
rhumerus -43.3832 6.89674 -90.7356
rradius 17.8865
rwrist -8.09092
rhand -7.62349 15.517
rfingers 7.12502
rthumb 18.2711 -13.6449
lclavicle -1.01753e-014 -6.53505e-015
lhumerus -43.0247 3.74456 80.6794
lradius 19.1746
lwrist -4.50393
lhand -15.3624 21.5308
lfingers 7.12502
lthumb 10.8152 51.2323
rfemur -60.0652 2.91118 21.7188
rtibia 43.7893
rfoot -35.78 -32.9647
rtoes 55.3946
lfemur -22.6842 -4.1872 -31.9041
ltibia 31.7702
lfoot -34.287 22.0215
ltoes -14.1414
5
root -0.4339 16.5129 -0.853455 -162.025 -7.0047 176.564
lowerback -5.43424 -2.28469 -3.98728
upperback -1.15105 -2.87776 -0.0929594
thorax 2.0472 -1.48453 1.9284
lowerneck -13.5098 2.48752 -0.620364
upperneck 40.4629 -2.17542 1.49963
head 17.0215 -2.42945 -0.105611
rclavicle 1.38155e-014 7.60351e-015
rhumerus -43.6702 7.53803 -91.1979
rradius 18.3136
rwrist -8.69032
rhand -7.36608 15.0852
rfingers 7.12502
rthumb 18.5187 -14.0533
lclavicle 1.38155e-014 7.60351e-015
lhumerus -43.3791 2.00356 81.924
lradius 19.0921
lwrist -5.10039
lhand -14.6948 20.825
lfingers 7.12502
lthumb 11.4591 50.4918
rfemur -60.0926 2.86647 21.9068
rtibia 43.7654
rfoot -34.8489 -33.7304
rtoes 54.5835
lfemur -22.8576 -4.08689 -32.0424
ltibia 31.7974
lfoot -34.3781 22.0633
ltoes -14.2326
6
root -0.439614 16.4987 -0.92448 -161.668 -7.1468 176.388
lowerback -6.0871 -2.39468 -3.9606
upperback -1.2124 -3.00515 -0.126265
thorax 2.35298 -1.55582 1.84255
lowerneck -13.6472 2.52663 -0.86674
upperneck 40.6123 -2.14399 1.66011
head 17.1427 -2.44219 0.0100267
rclavicle -5.75544e-015 -6.01324e-015
rhumerus -43.7241 7.80613 -91.3596
rradius 18.5112
rwrist -8.6284
rhand -7.03783 15.1457
rfingers 7.12502
rthumb 18.8344 -13.9624
lclavicle -5.75544e-015 -6.01324e-015
lhumerus -43.6503 -0.165795 83.5209
lradius 18.9595
lwrist -5.29492
lhand -14.0681 20.2835
lfingers 7.12502
lthumb 12.0634 49.9158
rfemur -60.0567 2.6311 21.974
rtibia 43.6867
rfoot -34.5127 -33.8939
rtoes 54.5012
lfemur -22.9566 -4.1383 -32.2017
ltibia 31.8626
lfoot -34.4205 22.0153
ltoes -14.6431
7
root -0.435244 16.4849 -0.997983 -161.493 -7.29133 176.201
lowerback -6.63525 -2.51031 -4.12888
upperback -1.1738 -3.12484 -0.143909
thorax 2.71386 -1.625 1.88186
lowerneck -13.7287 2.55224 -1.03621
upperneck 40.7214 -2.15435 1.82004
head 17.2286 -2.45928 0.106211
rclavicle 2.43294e-014 2.88238e-015
rhumerus -43.691 8.39735 -91.7704
rradius 18.6107
rwrist -8.96976
rhand -6.75187 15.1603
rfingers 7.12502
rthumb 19.1095 -13.9209
lclavicle 2.43294e-014 2.88238e-015
lhumerus -43.943 -2.24605 85.0457
lradius 18.811
lwrist -5.59859
lhand -13.6823 19.3581
lfingers 7.12502
lthumb 12.4354 48.9681
rfemur -59.8574 3.15843 21.5714
rtibia 43.5493
rfoot -35.0479 -34.6936
rtoes 54.4755
lfemur -22.8749 -4.03997 -32.3451
ltibia 31.9583
lfoot -34.3589 21.805
ltoes -15.0199
8
root -0.424612 16.4586 -1.05256 -160.719 -6.95804 175.962
lowerback -7.57339 -2.42944 -4.39334
upperback -1.3088 -2.9702 -0.25618
thorax 3.09352 -1.56306 1.89177
lowerneck -13.7941 2.47408 -1.20444
upperneck 40.6695 -2.27002 2.00418
head 17.2233 -2.49843 0.201395
rclavicle -3.42904e-014 -2.08475e-014
rhumerus -43.5086 8.88253 -92.2152
rradius 18.685
rwrist -9.82875
rhand -6.27241 14.5674
rfingers 7.12502
rthumb 19.5705 -14.4676
lclavicle -3.42904e-014 -2.08475e-014
lhumerus -44.1207 -3.9066 86.0786
lradius 18.7608
lwrist -6.58559
lhand -12.9898 18.1426
lfingers 7.12502
lthumb 13.103 47.711
rfemur -60.4655 4.09026 21.0003
rtibia 43.3838
rfoot -35.6342 -35.5357
rtoes 53.4698
lfemur -23.6071 -4.06616 -32.5743
ltibia 32.0476
lfoot -34.4484 21.7344
ltoes -14.9365
9
root -0.415703 16.4401 -1.11704 -160.334 -6.85122 175.89
lowerback -8.05507 -2.3965 -4.42873
upperback -1.41384 -2.91183 -0.325636
thorax 3.2465 -1.54075 1.82846
lowerneck -13.8984 2.45345 -1.08629
upperneck 40.7071 -2.28838 1.89378
head 17.27 -2.49949 0.125632
rclavicle 8.70925e-015 -4.29872e-015
rhumerus -43.5971 9.54039 -92.8468
rradius 18.9359
rwrist -10.9808
rhand -5.92173 14.09
rfingers 7.12502
rthumb 19.9076 -14.9103
lclavicle 8.70925e-015 -4.29872e-015
lhumerus -44.4508 -5.68688 87.2304
lradius 18.6529
lwrist -7.31397
lhand -12.5438 17.1086
lfingers 7.12502
lthumb 13.5329 46.6488
rfemur -60.546 5.04961 20.4595
rtibia 43.2764
rfoot -38.222 -34.683
rtoes 53.7835
lfemur -23.8249 -3.98029 -32.6242
ltibia 32.0646
lfoot -34.629 21.4156
ltoes -14.1232
10
root -0.410208 16.4283 -1.188 -160.079 -6.92652 175.713
lowerback -8.24999 -2.47091 -4.5435
upperback -1.6724 -3.01634 -0.37346
thorax 3.09563 -1.59572 1.82942
lowerneck -13.7169 2.57897 -0.771777
upperneck 40.832 -2.12024 1.54611
head 17.2823 -2.45337 -0.0644734
rclavicle -5.96975e-015 -3.13583e-014
rhumerus -44.1948 10.175 -93.4701
rradius 19.2561
rwrist -11.7378
rhand -6.13184 14.0275
rfingers 7.12502
rthumb 19.7056 -14.9937
lclavicle -5.96975e-015 -3.13583e-014
lhumerus -45.2696 -7.2047 88.3676
lradius 18.6242
lwrist -7.78992
lhand -12.147 16.2216
lfingers 7.12502
lthumb 13.9153 45.736
rfemur -60.4329 5.73593 19.9029
rtibia 43.2293
rfoot -40.9648 -33.1654
rtoes 54.88
lfemur -23.7992 -4.09567 -32.7378
ltibia 32.0762
lfoot -35.0199 21.0027
ltoes -12.8861
11
root -0.405427 16.4211 -1.26057 -159.762 -7.05416 175.382
lowerback -8.52829 -2.57273 -4.78068
upperback -1.95839 -3.14833 -0.476334
thorax 2.96715 -1.668 1.8352
lowerneck -13.4304 2.68219 -0.502544
upperneck 40.894 -2.02463 1.33262
head 17.2374 -2.42658 -0.196828
rclavicle -3.64024e-015 1.65488e-014
rhumerus -44.6558 10.1639 -93.7055
rradius 19.3705
rwrist -11.6703
rhand -6.14406 14.0651
rfingers 7.12502
rthumb 19.6939 -14.9573
lclavicle -3.64024e-015 1.65488e-014
lhumerus -46.147 -8.45703 89.3491
lradius 18.8293
lwrist -8.29359
lhand -11.5925 15.5083
lfingers 7.12502
lthumb 14.4497 44.9852
rfemur -60.4566 6.20574 19.2939
rtibia 43.2216
rfoot -41.8992 -33.4263
rtoes 54.9001
lfemur -23.7869 -4.15161 -33.0009
ltibia 32.0332
lfoot -35.2289 20.7854
ltoes -12.5049
12
root -0.400884 16.4169 -1.3305 -159.499 -7.2083 175.328
lowerback -8.8534 -2.63996 -4.7732
upperback -2.11336 -3.23996 -0.470176
thorax 2.99195 -1.71814 1.81573
lowerneck -13.4173 2.70242 -0.472791
upperneck 40.9341 -2.01218 1.31326
head 17.2562 -2.42623 -0.211241
rclavicle 1.82633e-015 -2.18663e-015
rhumerus -44.8872 10.5193 -94.0179
rradius 19.5354
rwrist -11.9816
rhand -5.83274 14.3019
rfingers 7.12502
rthumb 19.9931 -14.6895
lclavicle 1.82633e-015 -2.18663e-015
lhumerus -46.6837 -9.48676 90.2144
lradius 18.9879
lwrist -8.84309
lhand -10.6448 14.5787
lfingers 7.12502
lthumb 15.3626 43.988
rfemur -60.5133 6.97474 18.7885
rtibia 43.2236
rfoot -42.8137 -34.3935
rtoes 54.7373
lfemur -23.7776 -4.17129 -32.9805
ltibia 31.9441
lfoot -35.3973 20.9241
ltoes -12.4938
13
root -0.39737 16.4037 -1.39776 -159.484 -7.31474 175.43
lowerback -9.02494 -2.67161 -4.57957
upperback -2.06146 -3.28591 -0.440504
thorax 3.13575 -1.74143 1.72315
lowerneck -13.658 2.67005 -0.564727
upperneck 40.8687 -1.96822 1.33135
head 17.2809 -2.4002 -0.175049
rclavicle 3.33089e-014 1.77415e-014
rhumerus -44.8441 10.805 -94.1746
rradius 19.7338
rwrist -12.0541
rhand -5.60585 14.2084
rfingers 7.12502
rthumb 20.2112 -14.7601
lclavicle 3.33089e-014 1.77415e-014
lhumerus -47.0726 -10.948 91.404
lradius 19.1299
lwrist -8.69505
lhand -10.283 13.4564
lfingers 7.12502
lthumb 15.7111 42.8387
rfemur -60.2852 7.71311 18.5787
rtibia 43.2016
rfoot -44.89 -34.0851
rtoes 55.0745
lfemur -23.5139 -4.29914 -32.8041
ltibia 31.8693
lfoot -35.7557 20.9895
ltoes -12.0306
14
root -0.402527 16.385 -1.47179 -159.461 -7.40933 175.115
lowerback -9.23287 -2.71866 -4.66771
upperback -1.99444 -3.32512 -0.58961
thorax 3.31906 -1.7668 1.60067
lowerneck -13.8282 2.62314 -0.534211
upperneck 40.8156 -1.95523 1.2394
head 17.2932 -2.38662 -0.216831
rclavicle 1.26228e-014 3.57812e-015
rhumerus -44.8821 11.0038 -94.4118
rradius 19.8503
rwrist -12.0632
rhand -5.49552 13.7784
rfingers 7.12502
rthumb 20.3172 -15.1789
lclavicle 1.26228e-014 3.57812e-015
lhumerus -47.5916 -12.497 92.6452
lradius 19.1808
lwrist -8.5578
lhand -10.682 12.3255
lfingers 7.12502
lthumb 15.3268 41.7376
rfemur -59.961 7.54863 18.4641
rtibia 43.1843
rfoot -45.963 -33.4614
rtoes 55.1618
lfemur -23.1241 -4.52854 -33.0947
ltibia 31.8376
lfoot -36.0856 20.6877
ltoes -11.0326
